<?xml version="1.0" encoding="utf-8"?>
<!-- Generator: Adobe Illustrator 19.0.1, SVG Export Plug-In . SVG Version: 6.00 Build 0)  -->
<svg version="1.1" id="Layer_1" xmlns="http://www.w3.org/2000/svg" xmlns:xlink="http://www.w3.org/1999/xlink" x="0px" y="0px"
	 viewBox="0 0 100 100" style="enable-background:new 0 0 100 100;" xml:space="preserve">
<style type="text/css">
	.st0{fill:#FCE300;stroke:#D19500;stroke-width:2;stroke-miterlimit:10;}
</style>
<path class="st0" d="M56.735,9.9567l7.1888,22.1248c0.2479,0.7628,0.9587,1.2793,1.7607,1.2793h23.2634
	c6.9327,0,9.8152,8.8714,4.2065,12.9464L74.334,59.9811c-0.6489,0.4714-0.9204,1.3071-0.6725,2.0699l7.1888,22.1248
	c2.1423,6.5934-5.4041,12.0762-11.0128,8.0013L51.0169,78.5032c-0.6489-0.4714-1.5275-0.4714-2.1764,0L30.02,92.1771
	c-5.6087,4.075-13.1552-1.4079-11.0128-8.0013l7.1888-22.1248c0.2478-0.7628-0.0237-1.5984-0.6725-2.0699L6.7029,46.3072
	c-5.6087-4.075-2.7262-12.9464,4.2065-12.9464h23.2634c0.8021,0,1.5129-0.5165,1.7607-1.2793l7.1888-22.1248
	C45.2647,3.3633,54.5926,3.3633,56.735,9.9567z"/>
</svg>
